<svg width="302" height="269" viewBox="0 0 302 269" fill="none" xmlns="http://www.w3.org/2000/svg">
<path d="M301.502 118.04C301.502 201.273 234.02 268.779 150.763 268.779C67.506 268.779 3.81244e-05 201.273 3.81244e-05 118.04C-0.00596386 109.615 0.696723 101.204 2.10068 92.896C8.04577 128.022 26.2372 159.908 53.4496 182.901C80.6619 205.894 115.137 218.508 150.763 218.506C225.458 218.506 287.455 164.175 299.401 92.8881C300.809 101.198 301.512 109.612 301.502 118.04Z" fill="white"/>
<path d="M150.763 240.591C72.2067 240.591 7.76853 180.568 0.681835 103.914C0.245852 108.568 0.00012207 113.268 0.00012207 118.032C0.00012207 201.265 67.4902 268.771 150.763 268.771C234.036 268.771 301.502 201.273 301.502 118.04C301.502 113.284 301.264 108.575 300.828 103.922C293.733 180.568 229.271 240.591 150.763 240.591Z" fill="white"/>
<path d="M279.298 82.2422V122.931C268.662 144.707 252.882 163.565 233.322 177.873V82.2422H279.298Z" fill="white"/>
<path d="M22.2034 82.2422V122.931C32.8393 144.707 48.6196 163.565 68.1797 177.873V82.2422H22.2034Z" fill="white"/>
<path d="M150.755 123.224H81.9727V129.772C81.9748 131.472 82.6513 133.101 83.8537 134.302C85.0562 135.503 86.6861 136.177 88.3856 136.177H213.124C213.965 136.177 214.798 136.011 215.575 135.69C216.352 135.368 217.058 134.896 217.653 134.301C218.248 133.706 218.72 133 219.042 132.223C219.363 131.446 219.529 130.613 219.529 129.772V123.224H150.755Z" fill="white"/>
<path d="M23.8919 76.82H66.531C67.3721 76.82 68.205 76.6544 68.9821 76.3325C69.7592 76.0106 70.4653 75.5388 71.06 74.9441C71.6548 74.3493 72.1266 73.6432 72.4485 72.8661C72.7703 72.089 72.936 71.2562 72.936 70.4151V66.3723H17.5107V70.4151C17.5128 72.109 18.185 73.7333 19.3806 74.9334C20.5762 76.1334 22.198 76.8117 23.8919 76.82Z" fill="white"/>
<path d="M69.345 66.3803C73.9426 64.0815 79.4519 53.7448 72.7932 45.9288C66.1346 38.1128 45.2074 35.1244 45.2074 29.3773C45.2074 35.1244 24.2961 38.097 17.6296 45.9288C10.963 53.7606 16.4802 64.0815 21.0778 66.3803H69.345Z" fill="white"/>
<path d="M50.9704 0C52.4178 2.56996 52.9848 5.54286 52.5848 8.46514C52.1848 11.3874 50.8399 14.0986 48.7552 16.1852C46.6704 18.2717 43.9604 19.619 41.0384 20.0215C38.1165 20.4239 35.1431 19.8595 32.5719 18.4143C33.5946 20.2343 35.0247 21.7928 36.7503 22.9678C38.4759 24.1428 40.4501 24.9023 42.5182 25.1868C44.5864 25.4714 46.6923 25.2732 48.6711 24.608C50.6499 23.9427 52.4478 22.8283 53.924 21.3521C55.4002 19.8759 56.5146 18.078 57.1799 16.0992C57.8451 14.1204 58.0433 12.0145 57.7587 9.94635C57.4741 7.87819 56.7146 5.90401 55.5397 4.17841C54.3647 2.45281 52.8062 1.02267 50.9862 0H50.9704Z" fill="white"/>
<path d="M150.755 123.225H94.2198C83.455 117.842 70.534 93.6095 86.1422 75.3061C101.75 57.0028 150.755 50.0033 150.755 36.5433C150.755 50.0192 199.743 57.0028 215.359 75.3061C230.976 93.6095 218.055 117.842 207.282 123.225H150.755Z" fill="white"/>
<path d="M144.992 1.43481C143.504 4.00449 142.907 6.99361 143.293 9.93775C143.678 12.8819 145.026 15.6162 147.125 17.7158C149.225 19.8154 151.959 21.1628 154.903 21.5485C157.847 21.9343 160.837 21.3369 163.406 19.8491C162.384 21.6691 160.953 23.2276 159.228 24.4026C157.502 25.5776 155.528 26.3371 153.46 26.6216C151.392 26.9062 149.286 26.708 147.307 26.0428C145.328 25.3775 143.53 24.2631 142.054 22.7869C140.578 21.3107 139.464 19.5128 138.798 17.5341C138.133 15.5553 137.935 13.4493 138.219 11.3812C138.504 9.31301 139.264 7.33881 140.439 5.61322C141.613 3.88762 143.172 2.45748 144.992 1.43481Z" fill="white"/>
<path d="M150.763 142.122H86.9667V189.446C100.997 196.698 116.163 201.502 131.809 203.651V184.547C128.203 182.74 123.883 174.623 129.106 168.487C134.33 162.352 150.755 160.014 150.755 155.503C150.755 160.014 167.172 162.352 172.403 168.487C177.635 174.623 173.307 182.756 169.692 184.547V203.651C185.341 201.511 200.509 196.715 214.543 189.47V142.146L150.763 142.122Z" fill="white"/>
<path d="M277.618 76.82H234.979C233.279 76.82 231.649 76.1455 230.447 74.9445C229.244 73.7436 228.568 72.1145 228.566 70.4151V66.3723H284.054V70.4151C284.054 71.2588 283.888 72.0943 283.564 72.8735C283.24 73.6526 282.765 74.3601 282.167 74.9553C281.569 75.5505 280.859 76.0216 280.079 76.3416C279.298 76.6616 278.462 76.8242 277.618 76.82Z" fill="white"/>
<path d="M232.165 66.3803C227.567 64.0815 222.05 53.7448 228.716 45.9288C235.383 38.1128 256.294 35.1244 256.294 29.3773C256.294 35.1244 277.214 38.097 283.872 45.9288C290.531 53.7606 285.022 64.0815 280.432 66.3803H232.165Z" fill="white"/>
<path d="M250.563 0C249.111 2.57146 248.541 5.54772 248.941 8.47367C249.34 11.3996 250.687 14.1142 252.775 16.2024C254.863 18.2905 257.578 19.6373 260.504 20.0368C263.43 20.4362 266.406 19.8663 268.977 18.4143C267.955 20.2343 266.525 21.7928 264.799 22.9678C263.073 24.1428 261.099 24.9023 259.031 25.1868C256.963 25.4714 254.857 25.2732 252.878 24.608C250.899 23.9427 249.102 22.8283 247.625 21.3521C246.149 19.8759 245.035 18.078 244.37 16.0992C243.704 14.1204 243.506 12.0145 243.791 9.94635C244.075 7.87819 244.835 5.90401 246.01 4.17841C247.185 2.45281 248.743 1.02267 250.563 0Z" fill="white"/>
</svg>
